<?xml version="1.0" encoding="UTF-8"?>
<svg width="24" height="24" viewBox="0 0 24 24" fill="none" xmlns="http://www.w3.org/2000/svg">
  <path d="M13.49 5.48C14.15 4.91 15.03 4.5 16 4.5C18.21 4.5 20 6.29 20 8.5C20 9.97 19.15 11.25 17.91 11.91L16 12.5L14.09 11.91C12.85 11.25 12 9.97 12 8.5C12 7.03 12.85 5.75 14.09 5.09L13.49 5.48Z" fill="#3B82F6"/>
  <path d="M8 16C9.1 16 10 15.1 10 14C10 12.9 9.1 12 8 12C6.9 12 6 12.9 6 14C6 15.1 6.9 16 8 16Z" fill="#3B82F6"/>
  <path d="M16 16C17.1 16 18 15.1 18 14C18 12.9 17.1 12 16 12C14.9 12 14 12.9 14 14C14 15.1 14.9 16 16 16Z" fill="#3B82F6"/>
  <path d="M12 20C13.1 20 14 19.1 14 18C14 16.9 13.1 16 12 16C10.9 16 10 16.9 10 18C10 19.1 10.9 20 12 20Z" fill="#3B82F6"/>
</svg> 