<?xml version="1.0" encoding="UTF-8"?>
<svg width="24" height="24" viewBox="0 0 24 24" fill="none" xmlns="http://www.w3.org/2000/svg">
  <path d="M21 11.5V8C21 6.9 20.1 6 19 6H5C3.9 6 3 6.9 3 8V11.5C3 12.4 3.5 13.2 4.2 13.7L9 17.5V19H7V21H17V19H15V17.5L19.8 13.7C20.5 13.2 21 12.4 21 11.5ZM5 8H19V11.5L14.2 15.3C13.5 15.8 13 16.6 13 17.5V19H11V17.5C11 16.6 10.5 15.8 9.8 15.3L5 11.5V8Z" fill="#3B82F6"/>
  <path d="M12 9C10.9 9 10 9.9 10 11C10 12.1 10.9 13 12 13C13.1 13 14 12.1 14 11C14 9.9 13.1 9 12 9ZM12 11C12 11 12 11 12 11C12 11 12 11 12 11Z" fill="#3B82F6"/>
</svg> 