<?xml version="1.0" encoding="UTF-8"?>
<svg width="24" height="24" viewBox="0 0 24 24" fill="none" xmlns="http://www.w3.org/2000/svg">
  <path d="M12 1L3 5V11C3 16.55 6.84 21.74 12 23C17.16 21.74 21 16.55 21 11V5L12 1ZM19 11C19 15.52 16.02 19.69 12 20.93C7.98 19.69 5 15.52 5 11V6.3L12 3.19L19 6.3V11Z" fill="#3B82F6"/>
  <path d="M12 7C10.9 7 10 7.9 10 9C10 10.1 10.9 11 12 11C13.1 11 14 10.1 14 9C14 7.9 13.1 7 12 7ZM12 9C12 9 12 9 12 9C12 9 12 9 12 9Z" fill="#3B82F6"/>
  <path d="M12 12C10.33 12 7 12.67 7 14.5V16H17V14.5C17 12.67 13.67 12 12 12ZM15 15H9V14.5C9 14.22 10.61 13.5 12 13.5C13.39 13.5 15 14.22 15 14.5V15Z" fill="#3B82F6"/>
</svg> 